<svg width="39" height="39" viewBox="0 0 39 39" fill="none" xmlns="http://www.w3.org/2000/svg">
<mask id="path-1-inside-1_1890_23" fill="white">
<path d="M36.788 1.49615C38.758 3.43111 38.7865 6.59713 36.8515 8.56722L26.3402 19.2691L36.8198 29.7487C38.7724 31.7012 38.7723 34.8671 36.8198 36.8197C34.8672 38.7723 31.7013 38.7723 29.7487 36.8197L19.3334 26.4044L8.82347 37.1049C6.88852 39.075 3.72253 39.1034 1.7524 37.1684C-0.217587 35.2336 -0.246456 32.0682 1.68818 30.0981L12.2616 19.3326L1.46445 8.53545C-0.488174 6.58283 -0.488174 3.41701 1.46445 1.46439C3.41708 -0.488106 6.58294 -0.488192 8.53551 1.46439L19.2692 12.198L29.717 1.55968C31.6519 -0.410295 34.8179 -0.438747 36.788 1.49615Z"/>
</mask>
<path d="M36.788 1.49615L38.1895 0.0693095L38.1894 0.0692534L36.788 1.49615ZM36.8515 8.56722L38.2784 9.96867L38.2784 9.96863L36.8515 8.56722ZM26.3402 19.2691L24.9134 17.8677L23.5245 19.2818L24.926 20.6833L26.3402 19.2691ZM36.8198 29.7487L38.234 28.3344V28.3344L36.8198 29.7487ZM36.8198 36.8197L38.234 38.2339L38.2341 38.2339L36.8198 36.8197ZM29.7487 36.8197L28.3345 38.2339V38.2339L29.7487 36.8197ZM19.3334 26.4044L20.7476 24.9902L19.3206 23.5632L17.9065 25.003L19.3334 26.4044ZM8.82347 37.1049L7.3966 35.7035L7.39657 35.7035L8.82347 37.1049ZM1.7524 37.1684L0.350965 38.5953L0.350984 38.5953L1.7524 37.1684ZM1.68818 30.0981L0.261302 28.6966L0.261166 28.6968L1.68818 30.0981ZM12.2616 19.3326L13.6885 20.7341L15.0774 19.32L13.6758 17.9184L12.2616 19.3326ZM1.46445 8.53545L0.0502334 9.94967V9.94967L1.46445 8.53545ZM1.46445 1.46439L0.0502846 0.0501213L0.0502334 0.0501726L1.46445 1.46439ZM8.53551 1.46439L9.94973 0.0501726L9.94973 0.0501722L8.53551 1.46439ZM19.2692 12.198L17.855 13.6123L19.282 15.0393L20.6961 13.5994L19.2692 12.198ZM29.717 1.55968L28.2901 0.158202L28.29 0.158306L29.717 1.55968ZM36.788 1.49615L35.3865 2.92299C36.5685 4.08395 36.5856 5.98374 35.4247 7.1658L36.8515 8.56722L38.2784 9.96863C40.9873 7.21053 40.9475 2.77828 38.1895 0.0693095L36.788 1.49615ZM36.8515 8.56722L35.4247 7.16577L24.9134 17.8677L26.3402 19.2691L27.7671 20.6706L38.2784 9.96867L36.8515 8.56722ZM26.3402 19.2691L24.926 20.6833L35.4056 31.1629L36.8198 29.7487L38.234 28.3344L27.7545 17.8549L26.3402 19.2691ZM36.8198 29.7487L35.4056 31.1629C36.5771 32.3344 36.5771 34.2339 35.4055 35.4056L36.8198 36.8197L38.2341 38.2339C40.9675 35.5003 40.9677 31.0681 38.234 28.3344L36.8198 29.7487ZM36.8198 36.8197L35.4056 35.4055C34.234 36.5771 32.3345 36.5771 31.1629 35.4055L29.7487 36.8197L28.3345 38.2339C31.0682 40.9676 35.5003 40.9676 38.234 38.2339L36.8198 36.8197ZM29.7487 36.8197L31.1629 35.4055L20.7476 24.9902L19.3334 26.4044L17.9192 27.8186L28.3345 38.2339L29.7487 36.8197ZM19.3334 26.4044L17.9065 25.003L7.3966 35.7035L8.82347 37.1049L10.2503 38.5064L20.7603 27.8059L19.3334 26.4044ZM8.82347 37.1049L7.39657 35.7035C6.23569 36.8855 4.33599 36.9026 3.15382 35.7415L1.7524 37.1684L0.350984 38.5953C3.10908 41.3042 7.54134 41.2646 10.2504 38.5063L8.82347 37.1049ZM1.7524 37.1684L3.15383 35.7416C1.9717 34.5805 1.95455 32.6813 3.11519 31.4994L1.68818 30.0981L0.261166 28.6968C-2.44746 31.4551 -2.40688 35.8867 0.350965 38.5953L1.7524 37.1684ZM1.68818 30.0981L3.11506 31.4995L13.6885 20.7341L12.2616 19.3326L10.8348 17.9312L0.261302 28.6966L1.68818 30.0981ZM12.2616 19.3326L13.6758 17.9184L2.87866 7.12124L1.46445 8.53545L0.0502334 9.94967L10.8474 20.7469L12.2616 19.3326ZM1.46445 8.53545L2.87866 7.12124C1.70709 5.94967 1.70709 4.05017 2.87866 2.8786L1.46445 1.46439L0.0502334 0.0501726C-2.68344 2.78384 -2.68344 7.216 0.0502334 9.94967L1.46445 8.53545ZM1.46445 1.46439L2.87861 2.87865C4.05025 1.70709 5.94982 1.70712 7.1213 2.8786L8.53551 1.46439L9.94973 0.0501722C7.21605 -2.6835 2.7839 -2.6833 0.0502846 0.0501213L1.46445 1.46439ZM8.53551 1.46439L7.1213 2.8786L17.855 13.6123L19.2692 12.198L20.6834 10.7838L9.94973 0.0501726L8.53551 1.46439ZM19.2692 12.198L20.6961 13.5994L31.1439 2.96105L29.717 1.55968L28.29 0.158306L17.8422 10.7967L19.2692 12.198ZM29.717 1.55968L31.1438 2.96116C32.3048 1.77918 34.2045 1.7621 35.3866 2.92305L36.788 1.49615L38.1894 0.0692534C35.4313 -2.63959 30.9991 -2.59977 28.2901 0.158202L29.717 1.55968Z" fill="#3CA95F" mask="url(#path-1-inside-1_1890_23)"/>
</svg>
